<svg xmlns="http://www.w3.org/2000/svg" width="727" height="727" version="1.1" style=""><rect id="backgroundrect" width="100%" height="100%" x="0" y="0" fill="none" stroke="none"/>













<g class="currentLayer" style=""><title>Layer 1</title><path fill="#dadada" opacity="1.00" d=" M 55.21 0.00 L 58.87 0.00 C 60.90 6.80 62.32 16.30 68.08 20.75 C 79.29 16.13 91.56 15.01 102.92 19.80 C 109.75 15.67 113.23 6.93 117.18 0.00 L 119.90 0.00 C 122.27 8.07 115.46 19.31 121.01 25.89 C 133.22 21.71 147.02 16.72 159.36 23.68 C 168.79 23.04 160.81 3.31 169.87 3.01 C 172.32 13.04 171.41 32.77 186.36 30.84 C 193.85 25.12 190.26 12.35 195.05 6.06 C 198.78 11.70 198.45 23.68 203.99 28.61 C 219.42 22.09 235.29 28.03 250.68 30.91 C 258.65 24.13 258.04 9.62 264.13 2.03 C 271.03 8.77 271.55 22.48 278.72 30.67 C 294.58 28.75 311.51 20.91 327.20 28.71 C 333.67 24.21 327.36 7.30 335.70 5.15 C 338.05 15.06 336.98 34.23 352.16 30.68 C 357.71 25.28 355.66 13.17 359.05 7.27 C 365.48 11.35 360.05 32.23 373.02 30.90 C 386.42 32.30 378.24 8.29 386.55 5.85 C 388.28 13.12 388.53 21.70 392.14 28.90 C 408.09 23.36 424.68 27.18 440.49 30.91 C 446.25 23.90 448.97 14.89 451.09 6.22 C 451.52 4.02 453.84 -0.17 455.81 3.20 C 459.86 12.41 462.26 22.73 468.44 30.91 C 484.40 28.12 501.39 21.82 517.14 28.95 C 522.26 24.18 517.92 9.86 524.03 6.08 C 527.72 12.48 527.15 25.17 532.98 30.78 C 548.47 31.73 544.52 13.63 548.22 3.88 C 555.19 5.47 550.38 20.95 557.93 23.88 C 571.00 17.07 585.35 20.92 598.21 26.07 C 600.73 17.39 597.57 8.54 597.65 0.00 L 599.48 0.00 C 605.88 5.22 608.37 14.03 615.25 18.79 C 625.69 16.00 636.66 14.95 646.96 19.07 C 659.03 24.09 653.59 0.25 663.34 2.30 C 666.77 8.33 668.27 15.32 672.25 21.08 C 683.50 17.87 696.29 13.35 707.42 19.60 C 712.90 30.55 710.32 43.13 706.03 53.97 C 709.46 60.81 725.19 58.37 724.89 67.68 C 718.88 69.91 711.88 70.84 707.06 75.43 C 709.86 87.14 712.87 99.30 708.24 111.00 C 711.59 118.81 721.96 120.82 727.00 127.50 L 727.00 129.33 C 718.45 130.19 709.29 125.60 700.90 128.94 C 705.56 141.52 710.48 155.45 703.31 168.31 C 704.27 177.28 722.45 170.50 723.01 178.84 C 713.00 181.81 695.40 178.97 696.25 194.03 C 702.36 199.74 713.04 199.57 721.14 202.08 C 718.47 209.70 702.91 203.99 698.17 209.97 C 704.65 225.89 699.60 242.63 696.00 258.50 C 704.48 265.81 716.87 266.51 725.37 272.97 C 716.83 279.19 704.02 278.50 696.13 286.59 C 699.64 302.44 703.75 318.92 698.12 334.89 C 705.31 338.68 713.87 337.76 721.20 340.45 C 718.52 348.96 695.30 340.93 696.10 353.98 C 695.06 366.35 713.94 362.30 719.71 367.05 C 715.39 372.70 700.34 368.41 696.35 375.63 C 692.33 391.48 714.13 387.22 721.90 392.16 C 716.73 397.71 705.43 395.15 698.11 399.04 C 705.53 415.16 699.19 432.20 696.26 448.39 C 704.75 454.78 715.60 456.59 724.93 461.32 C 721.82 472.09 695.52 466.03 696.33 480.54 C 701.03 494.42 703.74 509.70 698.23 523.73 C 704.86 528.33 715.71 527.68 720.96 531.92 C 714.15 535.79 702.03 533.44 696.18 540.63 C 694.07 556.13 714.37 553.81 724.07 557.22 C 723.42 565.50 698.46 557.98 704.37 570.68 C 711.36 582.76 704.51 594.65 701.12 605.97 C 707.63 611.55 718.92 604.75 727.00 607.08 L 727.00 609.80 C 720.08 613.78 711.33 617.24 707.20 624.06 C 711.81 635.49 711.30 647.79 706.24 658.92 C 710.85 664.35 719.76 666.52 727.00 668.14 L 727.00 671.88 C 720.24 675.26 711.79 675.71 706.11 681.15 C 709.05 690.22 713.03 700.39 709.69 709.82 C 700.05 712.91 690.17 709.38 681.12 706.05 C 675.31 711.81 675.95 720.63 671.68 727.00 L 668.03 727.00 C 666.13 720.16 664.67 710.70 658.92 706.25 C 647.71 710.87 635.44 711.98 624.08 707.20 C 617.24 711.32 613.77 720.07 609.82 727.00 L 607.10 727.00 C 604.72 718.93 611.53 707.68 605.99 701.11 C 593.78 705.29 579.98 710.28 567.64 703.32 C 558.21 703.95 566.19 723.69 557.13 723.99 C 554.68 713.96 555.59 694.23 540.64 696.16 C 533.15 701.87 536.74 714.65 531.95 720.94 C 528.22 715.30 528.55 703.31 523.01 698.39 C 507.58 704.91 491.71 698.97 476.32 696.09 C 468.35 702.87 468.96 717.38 462.87 724.97 C 455.96 718.22 455.45 704.52 448.28 696.33 C 432.42 698.25 415.49 706.09 399.80 698.29 C 393.32 702.79 399.64 719.70 391.30 721.85 C 388.95 711.94 390.01 692.77 374.84 696.32 C 369.29 701.72 371.33 713.82 367.95 719.73 C 361.52 715.64 366.95 694.77 353.98 696.10 C 340.58 694.70 348.76 718.70 340.45 721.15 C 338.72 713.88 338.47 705.30 334.86 698.10 C 318.91 703.64 302.32 699.82 286.51 696.09 C 280.75 703.10 278.03 712.11 275.91 720.78 C 275.48 722.97 273.15 727.17 271.19 723.80 C 267.13 714.59 264.74 704.26 258.56 696.09 C 242.60 698.87 225.61 705.18 209.86 698.05 C 204.73 702.82 209.08 717.14 202.97 720.92 C 199.27 714.52 199.85 701.83 194.02 696.22 C 178.52 695.27 182.48 713.37 178.78 723.12 C 171.81 721.52 176.62 706.05 169.07 703.12 C 155.99 709.93 141.65 706.08 128.79 700.93 C 126.26 709.59 129.44 718.47 129.35 727.00 L 127.52 727.00 C 121.11 721.77 118.63 712.96 111.75 708.21 C 101.31 711.00 90.33 712.04 80.04 707.93 C 67.97 702.91 73.41 726.75 63.66 724.70 C 60.23 718.67 58.73 711.67 54.75 705.92 C 43.50 709.13 30.71 713.65 19.58 707.40 C 14.10 696.45 16.68 683.87 20.97 673.03 C 17.53 666.18 1.81 668.63 2.11 659.32 C 8.12 657.08 15.12 656.15 19.94 651.57 C 17.14 639.86 14.12 627.69 18.76 616.00 C 15.41 608.19 5.03 606.18 0.00 599.50 L 0.00 597.67 C 8.55 596.81 17.70 601.39 26.10 598.06 C 21.44 585.48 16.51 571.54 23.69 558.69 C 22.73 549.72 4.54 556.50 3.99 548.16 C 13.99 545.19 31.60 548.03 30.75 532.97 C 24.64 527.26 13.96 527.43 5.86 524.92 C 8.53 517.29 24.09 523.00 28.83 517.03 C 22.35 501.11 27.39 484.36 31.00 468.50 C 22.52 461.19 10.13 460.49 1.63 454.03 C 10.17 447.80 22.98 448.50 30.87 440.41 C 27.36 424.56 23.25 408.08 28.88 392.11 C 21.68 388.32 13.12 389.24 5.80 386.55 C 8.47 378.03 31.70 386.07 30.90 373.02 C 31.94 360.65 13.05 364.70 7.29 359.95 C 11.60 354.29 26.66 358.59 30.65 351.37 C 34.66 335.52 12.87 339.77 5.10 334.84 C 10.27 329.28 21.57 331.85 28.89 327.96 C 21.47 311.84 27.81 294.79 30.74 278.61 C 22.25 272.22 11.39 270.40 2.07 265.68 C 5.18 254.91 31.48 260.97 30.67 246.46 C 25.96 232.58 23.26 217.29 28.77 203.27 C 22.14 198.66 11.28 199.31 6.04 195.08 C 12.85 191.21 24.97 193.56 30.82 186.37 C 32.92 170.87 12.63 173.19 2.93 169.78 C 3.58 161.49 28.54 169.02 22.63 156.32 C 15.63 144.23 22.49 132.35 25.88 121.03 C 19.36 115.44 8.08 122.25 0.00 119.92 L 0.00 117.20 C 6.92 113.22 15.66 109.75 19.80 102.94 C 15.19 91.51 15.70 79.21 20.76 68.08 C 16.14 62.70 7.28 60.35 0.00 58.96 L 0.00 55.24 C 6.47 51.13 15.16 51.63 20.95 45.88 C 17.62 36.83 14.09 26.95 17.18 17.31 C 26.61 13.97 36.78 17.95 45.85 20.89 C 51.36 15.22 51.63 6.68 55.21 0.00 M 56.06 9.12 C 51.90 17.88 45.52 26.55 56.96 32.89 C 68.14 26.31 61.81 16.42 56.06 9.12 M 661.31 9.32 C 657.47 17.47 649.70 26.84 662.00 32.71 C 672.27 27.49 667.85 14.37 661.31 9.32 M 454.16 11.11 C 451.53 18.24 448.09 25.05 444.98 31.95 C 448.95 37.07 460.12 35.05 464.05 31.93 C 461.13 25.32 457.04 16.90 454.16 11.11 M 264.22 12.26 C 261.23 16.90 261.11 23.05 257.26 27.28 C 249.02 36.98 272.30 36.13 274.89 32.11 C 270.64 26.53 268.72 16.50 264.22 12.26 M 603.01 12.43 C 598.45 24.83 602.31 32.85 615.08 35.98 C 614.20 28.97 613.89 14.37 603.01 12.43 M 113.52 14.15 C 104.42 19.03 105.48 27.38 104.00 35.92 C 115.76 35.59 120.73 19.85 113.52 14.15 M 549.47 18.43 C 548.75 23.22 542.81 30.96 548.98 34.18 C 555.77 31.07 553.94 20.39 549.47 18.43 M 167.27 19.34 C 161.89 25.12 166.43 31.84 170.92 36.12 C 177.06 32.03 170.67 21.89 167.27 19.34 M 22.66 20.10 C 16.28 27.12 22.32 40.47 27.17 47.84 C 35.52 61.37 56.23 50.57 54.35 36.59 C 50.07 23.99 34.70 19.47 22.66 20.10 M 85.37 20.35 C 74.50 21.78 61.18 26.66 59.17 38.89 C 63.23 55.46 85.33 56.98 98.01 49.97 C 113.84 42.75 127.87 30.27 145.96 29.01 C 151.21 29.64 159.92 29.15 161.24 35.91 C 155.38 31.73 153.96 33.99 156.93 40.07 C 152.50 39.02 150.85 33.17 146.22 32.87 C 147.11 36.46 151.89 38.37 150.99 42.67 C 146.69 42.34 145.56 35.81 141.12 34.69 C 144.13 37.38 144.74 49.71 141.27 41.81 C 138.87 32.12 122.69 39.56 128.18 47.55 C 138.41 59.07 160.58 51.91 166.73 38.93 C 165.20 23.29 144.29 21.49 132.81 25.52 C 113.71 30.51 99.16 48.29 78.38 47.12 C 73.78 47.28 65.81 46.18 65.72 40.17 C 68.59 41.55 71.32 43.58 74.62 43.71 C 74.86 40.61 68.58 37.92 71.01 34.99 C 74.02 38.68 84.23 44.74 78.42 36.48 C 74.63 24.74 83.68 44.25 88.71 39.56 C 86.31 37.54 81.58 31.82 85.52 29.98 C 86.99 37.34 97.84 40.15 101.20 32.92 C 106.36 22.84 92.95 19.18 85.37 20.35 M 333.96 20.06 C 331.91 26.07 328.95 33.23 334.97 38.28 C 343.69 34.88 337.46 24.82 333.96 20.06 M 384.25 20.34 C 384.12 26.59 377.37 32.53 383.21 38.15 C 393.18 35.31 389.74 23.81 384.25 20.34 M 524.02 20.00 C 520.80 26.10 517.52 33.75 524.99 38.22 C 532.10 34.65 526.67 24.72 524.02 20.00 M 623.78 20.36 C 614.85 20.08 613.61 33.42 621.75 35.46 C 628.00 38.23 630.25 31.69 633.40 28.16 C 635.94 31.59 630.22 36.07 630.35 40.07 C 636.18 41.41 637.08 32.23 641.93 32.41 C 643.73 36.86 634.95 38.36 638.12 42.11 C 642.51 40.48 645.53 36.59 649.80 34.82 C 649.24 38.51 645.81 40.25 643.16 42.30 C 644.78 46.13 650.31 41.74 653.30 41.12 C 651.71 46.69 644.24 47.51 639.34 47.08 C 615.89 45.76 599.39 24.35 575.79 24.02 C 566.21 23.02 552.45 27.15 552.34 38.73 C 559.28 51.47 582.34 59.20 593.02 47.37 C 595.01 36.13 578.13 34.23 577.78 45.65 C 570.99 43.63 579.06 36.50 581.90 33.80 C 576.12 34.54 572.36 38.45 570.72 43.86 C 566.37 41.70 571.43 35.80 572.72 32.71 C 567.59 32.93 566.80 40.20 562.25 40.78 C 563.78 35.96 565.12 31.03 558.65 34.77 C 565.60 24.94 580.10 29.10 589.44 32.58 C 606.63 40.98 623.09 54.67 643.35 52.87 C 652.18 53.62 663.38 44.71 659.11 35.18 C 653.72 21.42 636.72 18.65 623.78 20.36 M 687.64 20.48 C 675.65 20.95 656.71 34.48 668.44 46.56 C 676.85 50.84 680.59 65.07 691.85 61.91 C 710.33 55.35 715.26 11.98 687.64 20.48 M 195.25 21.26 C 192.92 26.59 187.69 33.30 194.10 38.17 C 200.94 34.30 200.47 24.90 195.25 21.26 M 360.10 20.87 C 356.97 25.66 352.26 34.05 359.87 37.08 C 368.66 34.11 362.42 26.36 360.10 20.87 M 218.29 29.42 C 210.41 30.17 197.62 32.53 197.98 42.89 C 195.40 55.36 216.48 59.10 218.10 45.97 C 222.74 40.13 219.82 51.61 218.15 54.12 C 223.90 52.83 227.47 46.80 229.69 41.68 C 233.90 40.49 229.10 49.04 228.35 51.42 C 232.30 55.68 241.52 35.43 239.84 45.93 C 235.93 53.40 249.63 41.35 247.17 47.20 C 226.74 62.52 199.68 58.45 175.89 57.08 C 136.26 56.96 96.72 58.24 57.14 57.14 C 58.79 103.94 55.48 150.81 58.29 197.57 C 58.75 214.81 57.98 233.64 46.73 247.73 C 42.17 247.77 53.18 236.43 45.93 239.84 C 35.43 241.51 55.66 232.36 51.40 228.34 C 48.05 229.26 44.52 232.97 41.00 230.32 C 46.13 227.50 52.78 224.33 54.13 218.15 C 50.78 218.94 48.03 221.58 44.32 220.93 C 44.36 215.59 55.97 216.09 54.04 209.13 C 56.40 196.43 36.23 193.61 32.65 204.80 C 24.58 223.85 34.50 244.38 38.91 263.10 C 56.46 249.50 66.31 226.16 64.04 204.09 C 64.00 157.43 63.94 110.76 64.05 64.10 C 116.47 63.57 168.94 64.61 221.35 63.62 C 237.31 60.18 253.38 52.61 263.06 38.99 C 248.54 34.83 233.61 29.66 218.29 29.42 M 407.46 29.54 C 399.87 30.74 386.20 31.83 388.03 42.99 C 385.53 55.51 405.95 59.24 407.82 46.81 C 411.81 39.27 411.40 51.57 407.27 53.54 C 412.73 55.89 417.03 46.24 419.51 42.40 C 423.78 42.71 418.40 49.36 418.17 52.14 C 424.56 52.19 425.80 44.09 430.69 41.71 C 426.64 49.12 431.19 49.45 437.05 45.96 C 420.55 61.24 395.64 58.99 374.77 57.32 C 344.22 57.69 309.14 65.26 282.23 46.71 C 277.13 39.30 295.07 54.72 290.94 46.04 C 286.34 34.68 298.91 54.58 302.40 51.65 C 301.33 48.75 296.65 42.28 300.61 41.17 C 303.38 46.51 306.36 52.34 312.24 54.88 C 311.95 51.22 305.76 44.89 310.64 43.18 C 313.22 49.47 317.66 57.55 326.02 54.27 C 336.73 50.31 333.01 33.64 322.91 30.99 C 304.45 26.74 283.72 33.85 267.20 38.89 C 280.22 59.60 307.70 67.04 331.00 62.96 C 370.62 58.70 424.95 77.36 451.95 39.07 C 438.58 34.16 422.46 29.48 407.46 29.54 M 502.27 29.41 C 487.18 31.07 470.42 33.37 456.95 38.97 C 464.83 51.38 479.06 59.83 493.38 62.75 C 550.20 63.39 607.07 62.74 663.92 63.05 C 664.51 120.15 663.17 177.31 664.56 234.37 C 667.39 248.18 676.05 263.73 688.77 269.70 C 692.98 255.15 697.11 238.86 697.58 223.17 C 697.80 213.13 688.79 200.36 677.40 205.93 C 667.85 211.38 672.73 225.65 682.85 226.13 C 685.45 231.84 675.65 226.32 672.91 225.21 C 673.75 231.80 681.49 234.03 686.10 237.55 C 682.36 238.17 679.24 236.12 675.79 235.32 C 671.78 238.98 691.94 249.21 681.25 246.77 C 672.03 242.76 688.18 260.42 680.50 255.54 C 667.93 238.67 667.26 216.56 668.21 196.39 C 671.64 150.04 669.51 103.52 669.95 57.08 C 623.21 57.07 576.45 55.84 529.79 58.94 C 509.91 59.03 488.08 59.06 471.46 46.51 C 467.18 38.69 483.58 55.19 480.24 45.74 C 477.55 35.09 488.71 55.84 491.67 51.24 C 490.88 47.81 489.19 44.62 488.82 41.07 C 493.85 44.36 494.53 53.66 501.79 54.08 C 497.25 49.18 498.59 37.41 502.42 48.48 C 505.22 57.01 519.07 56.66 522.02 48.00 C 525.13 36.29 512.25 28.62 502.27 29.41 M 537.32 32.56 C 525.51 35.11 522.56 54.31 535.93 56.09 C 528.18 48.24 541.04 43.67 544.90 51.09 C 550.86 42.49 549.51 31.80 537.32 32.56 M 178.69 33.45 C 171.13 35.39 170.35 46.80 176.16 50.98 C 176.94 46.81 180.49 45.68 184.96 47.80 C 189.40 48.19 183.61 55.74 188.58 53.80 C 197.88 46.66 190.07 30.79 178.69 33.45 M 349.01 33.55 C 337.63 32.29 331.91 51.28 343.63 54.25 C 339.61 46.71 353.51 45.26 352.98 53.02 C 361.21 48.45 359.00 34.12 349.01 33.55 M 370.47 33.44 C 360.99 34.55 358.08 50.65 368.05 52.74 C 366.12 45.84 378.84 46.32 376.09 53.65 C 387.68 51.80 382.44 30.57 370.47 33.44 M 123.36 39.45 C 114.77 44.27 106.44 50.46 97.14 53.25 C 104.83 54.70 123.33 55.47 129.95 52.39 C 121.30 52.79 127.29 40.24 123.36 39.45 M 594.16 38.86 C 598.04 43.71 596.59 50.33 592.14 53.35 C 600.35 54.68 613.28 54.56 622.26 53.30 C 612.84 48.61 603.39 43.95 594.16 38.86 M 264.48 42.39 C 259.60 48.06 252.85 52.72 252.02 60.74 C 245.46 57.22 237.44 61.96 232.11 64.14 C 242.95 62.11 258.36 69.44 264.93 57.89 C 271.20 69.37 287.81 62.95 296.91 63.37 C 290.59 62.18 284.29 57.27 277.87 60.63 C 276.28 54.43 269.48 45.98 264.48 42.39 M 453.39 43.25 C 449.13 48.68 441.49 52.62 441.91 60.57 C 436.44 59.05 430.74 59.45 425.80 62.41 C 435.58 63.12 449.32 66.02 454.85 57.94 C 460.70 67.28 474.67 61.95 484.35 62.48 C 478.76 60.00 472.88 58.43 467.11 60.79 C 465.75 53.62 459.92 45.88 453.39 43.25 M 167.49 44.32 C 163.61 48.24 158.81 50.71 154.09 53.36 C 158.92 55.60 167.51 53.40 173.65 54.35 C 172.88 51.26 169.54 45.73 167.49 44.32 M 653.16 53.20 C 657.55 55.92 667.04 53.08 672.94 54.19 C 671.62 49.74 664.34 48.72 662.01 43.90 C 660.24 48.13 655.88 50.67 653.16 53.20 M 56.28 45.25 C 53.99 50.30 48.73 53.56 45.22 56.97 C 48.95 61.04 56.79 73.69 54.14 59.18 C 51.00 49.48 63.50 56.72 67.14 53.44 C 62.88 51.60 60.41 46.49 56.28 45.25 M 551.59 45.56 C 539.89 56.85 556.24 55.31 566.15 53.31 C 561.04 51.79 555.58 46.30 551.59 45.56 M 23.17 49.32 C 18.96 52.83 12.78 53.29 8.95 56.91 C 16.36 58.29 23.06 69.46 29.32 60.33 C 38.34 56.01 25.15 53.14 23.17 49.32 M 195.25 51.22 C 184.52 57.93 206.25 55.28 195.25 51.22 M 358.28 50.95 C 350.22 59.05 371.26 52.12 358.28 50.95 M 384.34 51.15 C 376.15 60.45 398.53 53.21 384.34 51.15 M 524.26 51.34 C 512.56 57.85 534.76 56.64 524.26 51.34 M 333.53 52.41 C 322.85 59.21 346.35 53.86 333.53 52.41 M 672.94 54.19 C 673.78 60.51 670.31 70.65 674.60 73.97 C 675.91 69.66 679.46 67.22 683.10 65.00 C 678.33 62.71 677.26 55.38 672.94 54.19 M 702.60 58.41 C 700.08 60.70 695.64 62.00 694.23 64.95 C 700.63 74.83 709.95 70.40 718.24 65.17 C 713.05 63.42 708.18 57.64 702.60 58.41 M 37.43 59.35 C 21.92 65.02 15.69 87.27 24.18 101.00 C 32.17 107.04 43.13 93.62 33.85 88.14 C 24.21 82.39 37.61 83.62 39.56 88.71 C 44.25 83.69 24.75 74.63 36.48 78.41 C 44.28 84.28 39.58 74.11 35.07 71.77 C 37.10 67.19 40.47 75.18 43.79 74.72 C 43.67 71.00 37.30 62.50 44.23 67.60 C 58.40 99.17 15.09 121.82 25.03 153.81 C 26.35 160.93 32.32 166.63 39.65 166.58 C 51.59 159.75 58.35 140.00 48.72 129.07 C 41.00 121.15 31.30 138.45 41.80 141.26 C 49.85 145.06 37.68 143.79 34.68 141.15 C 35.80 145.56 42.60 146.56 42.66 150.96 C 38.35 151.93 36.46 147.04 32.85 146.23 C 32.61 150.58 45.36 158.78 36.22 155.76 C 28.74 151.86 40.31 165.26 32.42 159.70 C 16.71 126.75 65.37 102.19 51.15 69.09 C 48.91 63.92 43.23 59.01 37.43 59.35 M 372.54 66.47 C 272.02 73.21 169.51 63.82 68.33 68.21 C 64.54 167.41 71.50 267.11 67.91 366.49 C 69.86 369.68 62.90 374.66 67.78 376.54 C 70.30 471.14 66.66 565.25 67.08 659.92 C 163.16 660.48 260.15 655.90 355.13 660.05 C 455.72 654.40 557.67 662.90 658.67 658.79 C 662.46 559.59 655.50 459.89 659.09 360.51 C 657.12 357.30 664.11 352.34 659.22 350.46 C 656.70 255.86 660.34 161.75 659.92 67.08 C 564.02 66.21 467.60 71.74 372.54 66.47 M 684.72 67.32 C 676.12 70.29 673.13 80.45 674.04 88.80 C 674.40 111.35 693.37 127.09 697.81 148.37 C 698.51 155.25 699.02 164.27 692.20 168.36 C 695.98 161.89 691.04 163.20 686.23 164.76 C 687.01 160.35 694.07 159.36 694.28 154.26 C 691.22 155.58 685.31 160.58 683.17 156.30 C 688.43 154.61 692.62 150.85 693.24 145.20 C 690.41 147.77 683.43 156.10 681.35 149.22 C 692.76 148.87 690.88 131.99 679.64 133.99 C 667.65 144.63 675.62 167.73 688.27 174.66 C 701.68 174.32 704.75 156.99 702.50 146.63 C 701.31 129.95 688.02 118.05 683.69 102.38 C 679.94 94.07 675.79 78.66 685.94 73.68 C 684.86 76.85 682.68 79.94 683.26 83.43 C 686.90 84.00 687.67 77.01 692.17 77.19 C 690.51 81.50 686.39 84.40 684.95 88.90 C 688.66 92.13 690.13 83.24 694.62 85.03 C 694.47 89.77 685.67 90.90 686.90 96.65 C 690.10 95.40 703.20 89.87 695.87 95.92 C 684.86 100.08 695.47 116.59 703.95 109.14 C 712.56 94.64 704.60 66.13 684.72 67.32 M 53.39 97.20 C 50.87 106.76 42.94 115.34 39.15 124.84 C 45.03 123.48 51.31 124.57 53.23 129.88 C 55.36 121.67 54.05 105.00 53.39 97.20 M 33.58 104.58 C 25.49 104.42 16.11 106.44 14.24 115.71 C 20.42 114.72 29.32 120.25 32.22 112.13 C 32.86 110.46 38.67 102.50 33.58 104.58 M 672.95 105.30 C 673.46 114.84 671.77 126.69 673.65 134.86 C 676.67 130.41 683.28 128.96 688.14 132.84 C 682.54 124.73 678.69 111.32 672.95 105.30 M 690.71 111.20 C 693.61 124.28 703.01 129.48 714.74 123.16 C 710.74 113.35 700.21 112.88 690.71 111.20 M 53.37 154.10 C 51.33 159.20 48.26 164.17 43.91 168.04 C 47.57 169.54 50.70 173.11 54.35 173.68 C 53.39 167.55 55.60 158.86 53.37 154.10 M 673.02 161.46 C 672.81 167.83 672.72 174.21 672.75 180.59 C 676.08 180.69 678.29 175.94 682.05 175.02 C 678.01 171.50 676.45 163.00 673.02 161.46 M 25.38 164.55 C 12.63 167.11 26.66 173.36 32.60 173.68 C 40.84 170.52 28.81 165.17 25.38 164.55 M 40.55 172.45 C 30.39 173.86 31.86 188.95 40.36 191.83 C 44.81 193.89 53.69 192.13 54.05 186.30 C 47.33 190.41 43.54 177.56 50.53 176.76 C 50.94 172.97 43.45 172.18 40.55 172.45 M 699.83 173.28 C 696.15 173.66 689.73 178.19 695.42 180.80 C 704.11 181.04 715.88 175.25 699.83 173.28 M 689.21 178.39 C 684.10 179.03 670.27 181.22 679.83 185.46 C 681.84 193.25 675.81 195.49 670.90 191.10 C 671.44 201.46 688.23 203.53 691.82 193.78 C 696.73 189.83 693.08 180.16 689.21 178.39 M 32.28 190.48 C 28.65 192.46 15.71 195.01 25.12 197.98 C 30.85 203.52 44.83 192.54 32.28 190.48 M 53.40 192.16 C 49.93 194.05 50.68 199.12 55.06 198.72 C 55.05 196.39 57.63 190.97 53.40 192.16 M 692.47 198.20 C 681.73 205.49 704.60 210.55 706.75 202.25 C 702.15 200.43 697.44 198.62 692.47 198.20 M 670.92 199.46 C 667.25 214.25 682.00 199.94 670.92 199.46 M 63.31 232.11 C 62.56 238.95 56.74 245.32 60.84 252.10 C 53.11 253.02 45.79 259.56 42.25 265.73 C 48.75 269.48 52.98 276.60 60.80 277.86 C 57.71 283.88 61.39 292.14 64.21 296.90 C 62.17 286.28 69.18 271.43 57.88 264.88 C 69.75 258.65 62.72 241.14 63.31 232.11 M 664.46 243.56 C 664.89 253.00 659.94 266.51 669.06 272.15 C 660.97 277.68 663.87 291.40 664.59 301.20 C 667.73 296.35 667.51 290.52 666.64 285.32 C 673.86 284.11 679.64 278.33 683.88 272.91 C 679.94 267.04 673.63 261.16 666.23 259.86 C 668.85 254.59 666.39 245.62 664.46 243.56 M 30.47 255.27 C 25.17 260.18 17.23 260.71 11.89 264.95 C 18.94 267.45 25.26 272.09 31.94 274.86 C 35.56 270.47 37.02 255.65 30.47 255.27 M 694.24 262.92 C 692.35 268.33 689.99 278.06 695.04 282.00 C 701.61 278.07 710.18 276.60 716.08 271.98 C 708.00 270.88 701.95 264.29 694.24 262.92 M 38.13 267.12 C 34.35 284.63 27.16 301.99 30.42 320.30 C 31.34 329.49 43.47 336.47 51.21 330.29 C 59.12 324.05 52.91 312.01 43.75 311.25 C 41.21 304.77 53.99 313.36 54.52 311.57 C 51.91 306.02 46.26 303.32 41.17 300.62 C 42.18 295.79 50.89 303.35 52.09 301.99 C 51.84 296.60 35.52 286.95 46.04 290.94 C 54.75 295.06 39.23 277.14 46.72 282.22 C 65.54 308.95 57.12 343.40 57.45 373.74 C 58.46 394.93 61.53 420.19 45.96 437.05 C 49.45 431.19 49.11 426.64 41.71 430.69 C 44.09 425.80 52.19 424.56 52.14 418.17 C 48.75 418.91 46.00 421.54 42.29 421.05 C 43.96 415.52 54.78 415.14 54.29 407.46 C 50.98 407.86 48.59 412.81 44.22 411.00 C 44.81 405.60 56.01 407.28 54.50 399.70 C 56.99 388.48 40.42 384.01 34.02 391.08 C 24.53 408.30 32.51 427.90 36.47 445.56 C 37.69 447.22 36.73 453.33 40.58 451.79 C 51.78 442.33 59.40 428.82 62.82 414.64 C 63.70 380.48 61.89 346.26 63.94 312.14 C 62.25 294.93 53.91 275.34 38.13 267.12 M 686.42 275.21 C 650.79 303.96 667.71 353.86 664.06 392.98 C 660.11 416.27 665.73 441.97 684.28 457.72 C 685.25 458.82 689.28 461.53 689.35 458.36 C 692.81 441.30 699.91 424.49 696.58 406.70 C 695.65 397.51 683.53 390.53 675.79 396.71 C 667.88 402.95 674.08 414.99 683.25 415.75 C 685.78 422.23 673.01 413.64 672.48 415.43 C 675.09 420.98 680.74 423.67 685.83 426.38 C 684.82 431.21 676.11 423.65 674.91 425.01 C 675.15 430.40 691.48 440.04 680.96 436.06 C 672.24 431.94 687.76 449.85 680.28 444.78 C 661.46 418.05 669.88 383.60 669.55 353.26 C 668.54 332.07 665.47 306.81 681.04 289.95 C 677.55 295.81 677.88 300.35 685.29 296.31 C 682.90 301.19 674.81 302.45 674.86 308.83 C 678.25 308.10 680.98 305.44 684.71 305.95 C 683.03 311.47 672.22 311.86 672.71 319.54 C 676.02 319.14 678.40 314.18 682.78 316.00 C 682.19 321.40 670.98 319.71 672.50 327.30 C 670.01 338.51 686.57 342.99 692.98 335.92 C 702.47 318.70 694.49 299.10 690.53 281.44 C 689.27 279.74 690.28 273.68 686.42 275.21 M 54.51 330.11 C 46.55 338.16 62.49 340.19 54.51 330.11 M 29.40 331.41 C 25.42 332.07 15.67 333.96 23.76 336.36 C 32.23 345.57 45.01 331.74 29.40 331.41 M 695.48 336.54 C 693.24 338.64 690.60 340.43 688.92 343.03 C 693.23 350.30 701.84 342.88 706.82 341.96 C 704.74 339.51 698.34 338.09 695.48 336.54 M 42.61 337.41 C 35.09 338.65 30.66 349.03 36.18 354.79 C 40.47 360.22 49.64 358.58 53.06 352.93 C 45.01 354.14 46.75 339.45 54.27 343.64 C 54.08 338.35 46.81 336.41 42.61 337.41 M 670.97 337.38 C 668.20 353.38 682.53 338.11 670.97 337.38 M 681.31 344.37 C 678.02 344.93 672.49 346.68 673.31 350.91 C 680.82 348.08 681.01 360.71 674.28 358.97 C 675.45 366.95 688.41 367.14 691.64 360.48 C 697.15 353.73 689.96 342.17 681.31 344.37 M 30.40 355.53 C 27.13 356.83 23.83 358.16 20.87 360.10 C 25.74 361.24 31.50 367.73 35.45 362.24 C 39.79 359.35 33.41 354.88 30.40 355.53 M 53.41 355.92 C 44.99 362.45 61.60 366.07 53.41 355.92 M 40.78 362.33 C 29.96 364.91 32.05 382.78 43.31 382.62 C 48.44 384.59 60.41 375.20 48.74 375.28 C 46.17 371.68 48.43 367.18 52.72 368.03 C 52.24 362.47 45.26 360.91 40.78 362.33 M 694.67 362.26 C 683.47 367.13 696.66 375.40 702.09 369.13 C 711.19 366.31 697.69 364.22 694.67 362.26 M 672.11 364.31 C 668.79 379.49 682.00 363.45 672.11 364.31 M 679.90 369.36 C 677.44 370.20 675.49 372.04 673.94 374.07 C 681.99 372.84 680.24 387.55 672.74 383.35 C 674.57 392.75 690.71 391.35 692.50 382.30 C 696.15 374.87 687.58 366.19 679.90 369.36 M 32.30 380.45 C 28.40 381.97 24.54 383.66 20.34 384.25 C 20.26 388.46 28.03 386.95 30.40 390.53 C 34.70 389.38 42.79 380.99 32.30 380.45 M 53.37 381.97 C 48.60 383.80 52.05 390.77 56.03 389.62 C 55.86 386.79 57.71 381.50 53.37 381.97 M 693.79 387.31 C 680.76 394.29 703.66 399.23 706.78 392.27 C 702.62 390.25 698.29 388.40 693.79 387.31 M 671.04 389.39 C 667.11 404.71 680.88 389.70 671.04 389.39 M 62.41 425.80 C 59.26 430.65 59.48 436.47 60.36 441.68 C 53.14 442.88 47.36 448.66 43.12 454.09 C 47.06 459.97 53.37 465.83 60.77 467.14 C 58.45 472.90 60.01 478.79 62.48 484.35 C 61.95 474.68 67.28 460.70 57.94 454.85 C 66.03 449.32 63.12 435.59 62.41 425.80 M 662.79 430.10 C 664.81 440.71 657.82 455.57 669.12 462.12 C 657.25 468.35 664.27 485.84 663.69 494.89 C 664.44 488.04 670.26 481.68 666.16 474.90 C 673.89 473.98 681.20 467.44 684.75 461.27 C 678.26 457.52 674.02 450.39 666.20 449.14 C 669.28 443.11 665.61 434.86 662.79 430.10 M 30.48 445.43 C 24.62 449.77 16.21 450.32 10.92 455.02 C 16.59 456.58 22.08 458.73 26.93 462.15 C 36.33 470.88 38.44 444.75 30.48 445.43 M 694.26 452.29 C 692.14 458.34 690.18 469.14 695.76 471.91 C 701.53 467.47 709.40 466.11 715.09 462.04 C 707.89 459.38 701.29 454.41 694.26 452.29 M 38.23 457.30 C 34.02 471.84 29.89 488.14 29.42 503.83 C 29.20 513.87 38.21 526.64 49.60 521.07 C 59.14 515.62 54.27 501.34 44.15 500.87 C 41.55 495.16 51.35 500.68 54.09 501.79 C 53.24 495.19 45.50 492.96 40.90 489.45 C 44.62 488.81 47.77 490.88 51.21 491.68 C 55.21 488.02 35.06 477.79 45.75 480.23 C 54.97 484.23 38.81 466.58 46.50 471.46 C 59.07 488.33 59.73 510.44 58.79 530.61 C 55.36 576.96 57.49 623.48 57.05 669.92 C 103.79 669.93 150.55 671.16 197.21 668.06 C 217.09 667.97 238.92 667.94 255.54 680.49 C 259.82 688.30 243.42 671.81 246.76 681.26 C 249.45 691.91 238.28 671.15 235.33 675.76 C 236.12 679.20 237.79 682.36 238.18 685.93 C 233.14 682.64 232.46 673.34 225.21 672.92 C 225.79 676.00 232.14 683.61 226.41 683.56 C 226.13 673.62 212.14 667.35 206.46 677.06 C 199.44 688.59 214.18 698.91 224.73 697.59 C 239.81 695.92 256.58 693.63 270.05 688.03 C 262.17 675.62 247.93 667.16 233.62 664.25 C 176.80 663.60 119.92 664.26 63.08 663.95 C 62.49 606.85 63.83 549.69 62.44 492.63 C 59.60 478.82 50.95 463.27 38.23 457.30 M 687.74 464.05 C 670.53 477.88 660.63 500.88 662.96 522.91 C 663.00 569.57 663.06 616.23 662.95 662.90 C 610.53 663.42 558.06 662.39 505.65 663.38 C 489.69 666.82 473.62 674.39 463.94 688.01 C 482.41 692.62 502.46 702.11 521.59 694.71 C 528.79 692.30 531.28 683.04 527.42 676.85 C 522.54 670.13 510.15 671.80 508.90 681.03 C 504.25 686.86 507.18 675.38 508.85 672.88 C 503.10 674.17 499.53 680.19 497.31 685.32 C 493.08 686.50 497.90 677.96 498.65 675.58 C 494.70 671.32 485.48 691.57 487.16 681.07 C 491.07 673.60 477.37 685.64 479.83 679.80 C 500.26 664.48 527.31 668.55 551.11 669.92 C 590.73 670.04 630.28 668.76 669.86 669.86 C 668.21 623.06 671.51 576.19 668.71 529.43 C 668.24 512.19 669.02 493.36 680.27 479.27 C 684.82 479.23 673.82 490.56 681.07 487.16 C 691.57 485.49 671.34 494.64 675.60 498.66 C 678.96 497.74 682.47 494.02 686.00 496.68 C 680.87 499.50 674.22 502.67 672.87 508.85 C 676.22 508.06 678.96 505.40 682.68 506.07 C 682.63 511.41 671.02 510.91 672.96 517.87 C 670.60 530.57 690.77 533.39 694.35 522.20 C 702.19 503.26 692.99 482.33 687.74 464.05 M 30.23 520.24 C 7.85 521.10 33.55 534.35 38.22 524.99 C 35.94 523.13 33.48 519.44 30.23 520.24 M 54.56 520.19 C 44.98 526.66 63.15 531.13 54.56 520.19 M 41.72 527.34 C 32.24 530.89 30.93 541.20 36.22 548.79 C 40.77 547.25 50.57 549.07 50.72 543.32 C 42.37 541.78 49.42 527.74 55.16 535.83 C 57.56 531.12 47.68 524.50 41.72 527.34 M 695.96 527.34 C 679.95 534.32 700.59 539.63 706.12 531.09 C 702.91 529.52 699.59 527.49 695.96 527.34 M 671.94 528.28 C 666.88 540.14 682.29 530.79 671.94 528.28 M 680.51 534.45 C 677.39 535.18 672.67 536.78 672.95 540.70 C 680.35 536.82 683.00 549.73 675.96 550.85 C 680.07 556.28 689.75 556.30 693.00 549.78 C 696.14 542.19 688.79 532.67 680.51 534.45 M 28.48 546.44 C 24.62 547.43 13.06 549.28 21.95 552.11 C 27.92 559.20 40.25 544.99 28.48 546.44 M 52.51 546.11 C 41.42 551.57 48.81 557.17 53.29 566.14 C 53.59 560.99 56.65 549.23 52.51 546.11 M 37.27 552.48 C 24.72 554.03 22.63 570.48 24.50 580.37 C 25.69 597.05 38.98 608.95 43.31 624.62 C 47.06 632.93 51.21 648.34 41.06 653.32 C 42.14 650.15 44.31 647.06 43.74 643.57 C 40.10 643.00 39.33 649.98 34.83 649.81 C 36.49 645.50 40.61 642.59 42.05 638.10 C 38.33 634.86 36.87 643.75 32.38 641.97 C 32.53 637.22 41.32 636.09 40.10 630.35 C 35.88 630.72 32.85 634.96 28.22 634.33 C 29.94 629.83 38.39 629.16 35.57 622.52 C 34.91 615.33 22.83 613.54 21.02 621.17 C 17.67 635.25 21.33 655.43 37.49 659.90 C 48.88 661.33 54.42 647.70 52.96 638.20 C 52.60 615.64 33.62 599.90 29.19 578.61 C 28.63 571.69 27.76 562.54 35.08 558.83 C 31.00 565.20 35.95 563.74 40.76 562.24 C 40.01 566.64 32.91 567.63 32.72 572.74 C 35.78 571.42 41.68 566.41 43.83 570.70 C 38.56 572.38 34.38 576.15 33.76 581.80 C 36.58 579.22 43.57 570.90 45.65 577.78 C 34.24 578.13 36.12 595.01 47.36 593.01 C 59.48 582.51 51.29 556.93 37.27 552.48 M 672.65 553.32 C 673.60 559.44 671.38 568.13 673.63 572.90 C 675.67 567.80 678.73 562.82 683.09 558.96 C 679.43 557.45 676.29 553.89 672.65 553.32 M 694.40 553.32 C 686.05 556.28 699.22 563.59 702.98 561.94 C 714.10 559.00 699.06 553.68 694.40 553.32 M 687.35 560.42 C 675.41 567.25 668.65 587.00 678.28 597.93 C 686.00 605.85 695.70 588.55 685.20 585.74 C 677.15 581.93 689.31 583.21 692.32 585.85 C 691.19 581.43 684.40 580.43 684.34 576.04 C 688.65 575.07 690.54 579.96 694.15 580.77 C 693.85 576.05 687.98 574.38 686.97 570.09 C 693.03 573.05 695.22 571.58 691.10 565.76 C 699.13 568.07 698.36 579.52 697.12 586.03 C 695.15 601.80 683.43 613.37 677.80 627.68 C 669.80 640.44 671.06 663.54 688.11 667.83 C 704.79 663.74 711.50 639.91 702.82 626.00 C 694.83 619.96 683.87 633.37 693.15 638.86 C 702.79 644.61 689.38 643.38 687.44 638.29 C 682.74 643.30 702.25 652.37 690.52 648.59 C 682.72 642.72 687.42 652.89 691.93 655.23 C 689.90 659.81 686.52 651.81 683.21 652.28 C 683.32 656.00 689.69 664.50 682.77 659.40 C 668.60 627.83 711.91 605.18 701.97 573.19 C 700.65 566.07 694.68 560.37 687.35 560.42 M 52.47 592.08 C 50.25 597.97 43.13 597.14 38.86 594.16 C 43.95 603.39 48.61 612.84 53.30 622.26 C 53.71 613.74 56.22 598.38 52.47 592.08 M 672.88 597.14 C 673.59 607.67 671.79 621.28 673.61 629.80 C 676.13 620.24 684.05 611.65 687.85 602.16 C 681.00 604.54 676.05 600.84 672.88 597.14 M 25.45 601.45 C 19.44 602.17 6.02 603.12 16.44 608.58 C 20.08 617.09 29.84 610.98 36.24 615.90 C 32.62 611.93 32.39 599.99 25.45 601.45 M 699.35 610.29 C 694.57 612.36 692.70 618.35 691.08 623.00 C 699.72 621.40 710.66 622.46 712.76 611.29 C 708.25 611.50 703.81 610.62 699.35 610.29 M 52.40 653.03 C 51.09 657.34 47.54 659.78 43.90 662.00 C 48.67 664.28 49.73 671.61 54.06 672.81 C 53.22 666.49 56.67 656.34 52.40 653.03 M 23.13 654.32 C 18.70 657.53 13.18 658.80 8.77 661.83 C 15.08 664.04 22.57 673.34 28.66 665.68 C 37.99 662.19 26.29 657.47 23.13 654.32 M 672.88 660.22 C 672.68 666.68 675.40 676.50 665.12 672.91 C 653.78 671.86 667.55 677.79 669.33 681.70 C 673.57 679.48 676.27 672.70 681.75 670.73 C 680.12 667.03 675.61 662.63 672.88 660.22 M 703.30 662.55 C 699.91 665.10 689.73 669.80 697.36 672.58 C 702.57 681.80 711.65 673.44 718.05 670.09 C 712.83 668.29 707.88 664.57 703.30 662.55 M 408.65 663.57 C 367.96 669.87 320.07 651.07 284.44 677.36 C 281.51 680.85 274.90 683.62 275.18 688.70 C 295.00 693.38 318.00 703.87 337.09 692.01 C 348.12 678.88 324.39 663.12 319.49 679.50 C 315.79 688.04 315.10 675.92 319.73 673.46 C 314.28 671.11 309.96 680.75 307.49 684.60 C 303.21 684.27 308.61 677.64 308.83 674.86 C 302.45 674.81 301.19 682.90 296.31 685.29 C 300.35 677.88 295.81 677.55 289.95 681.04 C 306.45 665.76 331.36 668.01 352.23 669.68 C 382.78 669.30 417.86 661.74 444.77 680.29 C 449.87 687.70 431.93 672.27 436.06 680.96 C 440.66 692.32 428.08 672.42 424.60 675.35 C 425.67 678.24 430.35 684.71 426.39 685.83 C 423.62 680.49 420.64 674.66 414.76 672.12 C 415.05 675.78 421.22 682.10 416.36 683.82 C 413.77 677.53 409.34 669.44 400.98 672.73 C 390.27 676.69 393.98 693.36 404.09 696.01 C 422.55 700.25 443.28 693.15 459.80 688.11 C 449.43 671.92 427.96 661.65 408.65 663.57 M 430.25 662.71 C 434.72 665.79 443.53 669.01 449.87 666.51 C 450.15 674.43 457.84 679.00 461.97 685.07 C 467.15 679.38 474.01 674.43 474.98 666.26 C 481.54 669.78 489.56 665.04 494.89 662.86 C 484.04 664.88 468.64 657.56 462.07 669.11 C 455.73 657.52 440.77 664.94 430.25 662.71 M 38.11 664.52 C 21.70 667.90 16.61 690.95 22.39 704.57 C 35.66 710.12 53.73 705.92 61.36 693.20 C 64.46 687.59 60.63 681.28 55.84 678.13 C 49.28 674.39 46.78 664.42 38.11 664.52 M 243.57 664.46 C 245.65 666.40 254.61 668.86 259.89 666.21 C 261.06 673.66 266.95 679.93 272.92 683.88 C 277.82 679.20 285.27 674.30 285.09 666.43 C 290.55 667.95 296.26 667.55 301.20 664.59 C 291.41 663.87 277.68 660.97 272.15 669.06 C 266.51 659.94 253.00 664.89 243.57 664.46 M 190.82 671.17 C 198.97 677.85 186.24 684.12 182.85 676.13 C 178.85 678.39 179.28 686.33 178.15 690.73 C 183.15 692.52 189.31 696.93 193.82 691.87 C 203.66 688.27 201.46 670.97 190.82 671.17 M 199.84 670.88 C 198.87 682.21 214.60 667.06 199.84 670.88 M 337.64 670.97 C 337.58 682.83 353.25 667.68 337.64 670.97 M 389.65 671.05 C 389.02 681.10 404.89 666.79 389.65 671.05 M 532.36 671.34 C 530.34 671.59 526.99 671.34 528.87 674.21 C 530.67 680.03 539.18 669.99 532.36 671.34 M 364.50 672.14 C 363.32 682.24 379.12 668.37 364.50 672.14 M 689.19 672.64 C 680.17 672.61 672.42 680.87 672.46 689.67 C 675.58 701.38 689.02 706.26 699.94 706.99 C 703.26 708.55 708.11 705.72 707.00 701.95 C 706.48 690.40 702.37 675.26 689.19 672.64 M 54.06 672.81 C 55.37 677.25 62.66 678.27 64.99 683.10 C 66.76 678.86 71.12 676.33 73.84 673.80 C 69.45 671.08 59.94 673.90 54.06 672.81 M 105.30 672.95 C 111.32 678.69 124.73 682.54 132.84 688.14 C 128.96 683.28 130.41 676.67 134.86 673.65 C 126.69 671.77 114.84 673.46 105.30 672.95 M 161.34 672.90 C 163.29 676.36 171.90 677.85 175.03 682.05 C 175.97 678.29 180.64 676.10 180.62 672.74 C 174.19 672.74 167.76 672.79 161.34 672.90 M 349.31 673.09 C 339.01 678.88 346.48 697.34 357.90 693.01 C 366.60 691.19 368.19 675.95 358.95 674.26 C 359.82 682.80 348.69 678.04 349.31 673.09 M 383.37 672.75 C 387.39 680.29 373.49 681.73 374.02 673.98 C 364.20 678.98 370.02 696.49 380.87 692.92 C 390.83 692.16 393.56 674.72 383.37 672.75 M 538.42 673.20 C 530.62 679.19 534.63 692.83 544.43 693.51 C 554.47 696.02 558.08 680.92 550.84 676.02 C 550.07 680.19 546.50 681.30 542.04 679.20 C 537.60 678.81 543.39 671.25 538.42 673.20 M 553.35 672.65 C 553.79 676.33 557.56 679.36 558.94 683.13 C 563.06 679.13 567.92 676.33 572.91 673.64 C 568.07 671.39 559.48 673.59 553.35 672.65 M 597.20 672.78 C 600.48 675.97 604.77 680.85 602.15 687.84 C 611.72 684.13 619.93 676.32 629.86 673.75 C 621.72 671.01 607.20 674.20 597.20 672.78 M 641.64 673.41 C 619.60 676.54 603.85 696.76 581.04 697.99 C 575.78 697.35 567.08 697.85 565.76 691.09 C 571.62 695.26 573.04 693.00 570.07 686.93 C 574.50 687.98 576.14 693.82 580.78 694.13 C 579.89 690.54 575.11 688.62 576.01 684.33 C 580.31 684.66 581.43 691.18 585.88 692.31 C 582.87 689.61 582.25 677.29 585.73 685.19 C 588.13 694.88 604.30 687.44 598.82 679.45 C 588.58 667.93 566.42 675.09 560.27 688.07 C 561.80 703.71 582.71 705.51 594.19 701.48 C 613.29 696.49 627.84 678.71 648.62 679.88 C 653.20 679.70 661.19 680.81 661.28 686.83 C 658.41 685.45 655.68 683.42 652.38 683.29 C 652.13 686.38 658.42 689.08 655.99 692.01 C 652.97 688.31 642.77 682.26 648.58 690.52 C 652.37 702.26 643.31 682.75 638.29 687.44 C 640.69 689.46 645.42 695.18 641.48 697.02 C 638.91 684.60 620.24 690.48 625.33 702.11 C 638.77 711.98 662.78 705.01 667.81 688.85 C 666.31 676.92 652.29 671.54 641.64 673.41 M 81.66 674.47 C 73.33 674.66 63.87 682.99 67.89 691.83 C 73.85 706.46 92.99 709.23 106.53 705.70 C 113.55 703.39 111.26 692.02 104.48 691.43 C 98.57 689.17 96.68 695.62 93.60 698.84 C 91.05 695.40 96.77 690.92 96.65 686.93 C 90.82 685.58 89.92 694.77 85.07 694.59 C 83.27 690.14 92.04 688.63 88.88 684.89 C 84.48 686.51 81.47 690.41 77.20 692.18 C 77.76 688.49 81.18 686.75 83.84 684.70 C 82.22 680.86 76.69 685.26 73.70 685.88 C 75.28 680.31 82.76 679.48 87.66 679.92 C 111.10 681.24 127.61 702.65 151.21 702.98 C 160.78 703.97 174.55 699.85 174.66 688.27 C 167.72 675.53 144.65 667.79 133.98 679.63 C 131.98 690.87 148.87 692.77 149.22 681.35 C 156.01 683.36 147.93 690.50 145.10 693.20 C 150.87 692.45 154.63 688.55 156.28 683.14 C 160.62 685.29 155.57 691.20 154.28 694.29 C 158.69 693.72 160.33 689.02 163.29 686.32 C 167.43 685.62 159.62 696.06 165.34 693.18 C 171.52 690.36 164.11 697.45 161.28 697.50 C 131.59 702.77 111.56 668.89 81.66 674.47 M 201.38 689.21 C 194.93 693.14 200.85 701.30 202.25 706.75 C 206.91 703.57 209.25 690.66 201.38 689.21 M 342.46 689.38 C 333.67 693.83 338.39 700.07 341.15 706.96 C 343.64 703.63 349.98 691.02 342.46 689.38 M 391.59 688.96 C 383.48 692.53 389.67 702.34 393.04 706.94 C 394.94 700.92 398.43 693.58 391.59 688.96 M 532.41 689.33 C 525.92 693.62 526.99 700.44 531.07 706.10 C 534.55 701.64 539.20 692.11 532.41 689.33 M 366.90 690.21 C 358.26 693.05 364.78 700.76 366.91 706.14 C 370.05 701.52 374.86 692.27 366.90 690.21 M 111.22 690.70 C 116.31 697.12 109.61 706.97 118.44 710.56 C 124.73 722.08 124.94 704.29 125.82 698.38 C 121.12 695.52 116.19 693.05 111.22 690.70 M 555.50 691.36 C 549.97 696.11 556.97 702.49 558.25 707.74 C 565.97 704.88 560.70 692.89 555.50 691.36 M 621.49 691.49 C 610.09 693.86 609.12 702.95 611.27 712.74 C 621.09 712.58 624.39 695.36 621.49 691.49 M 269.59 692.44 C 254.73 693.70 272.34 707.63 272.06 716.00 C 276.10 710.27 278.31 701.62 282.02 695.06 C 279.97 691.08 273.26 692.34 269.59 692.44 M 459.50 692.51 C 444.30 692.45 460.81 707.28 462.07 715.03 C 465.04 706.34 481.65 688.05 459.50 692.51 M 177.36 693.20 C 171.58 697.17 172.90 704.63 177.23 709.31 C 178.32 704.72 184.52 694.48 177.36 693.20 M 64.30 694.27 C 55.00 701.42 59.22 710.26 65.16 718.23 C 69.71 710.25 77.47 699.24 64.30 694.27 M 669.51 694.57 C 658.58 701.55 665.78 709.31 670.18 717.92 C 675.83 711.19 681.13 698.23 669.51 694.57 Z" id="svg_1" class="selected" fill-opacity="1"/><path fill="#dadada" opacity="1.00" d=" M 688.81 29.24 C 692.16 31.34 695.65 34.84 697.76 38.19 C 692.16 38.62 688.38 34.84 688.81 29.24 Z" id="svg_2" class="selected" fill-opacity="1"/><path fill="#dadada" opacity="1.00" d=" M 37.08 32.16 C 38.01 40.30 26.18 36.27 37.08 32.16 Z" id="svg_3" class="selected" fill-opacity="1"/><path fill="#dadada" opacity="1.00" d=" M 681.70 32.26 C 686.40 36.21 690.78 40.60 694.74 45.30 C 691.57 44.42 688.76 42.69 685.95 41.04 C 684.30 38.23 682.57 35.42 681.70 32.26 Z" id="svg_4" class="selected" fill-opacity="1"/><path fill="#dadada" opacity="1.00" d=" M 44.06 35.29 C 43.65 39.76 39.52 43.44 35.24 44.25 C 36.40 39.88 40.37 37.42 44.06 35.29 Z" id="svg_5" class="selected" fill-opacity="1"/><path fill="#dadada" opacity="1.00" d=" M 677.85 39.08 C 671.06 30.76 681.25 40.91 685.95 41.04 C 686.48 45.45 690.34 48.12 692.16 51.94 C 688.28 51.25 687.06 46.33 683.12 46.02 C 683.85 49.34 685.06 52.83 684.34 56.24 C 682.54 49.22 677.77 44.46 670.76 42.66 C 675.45 42.54 685.31 45.53 677.85 39.08 Z" id="svg_6" class="selected" fill-opacity="1"/><path fill="#dadada" opacity="1.00" d=" M 45.52 42.33 C 50.53 40.58 44.63 48.07 41.79 47.83 C 42.21 45.58 42.73 42.62 45.52 42.33 Z" id="svg_7" class="selected" fill-opacity="1"/><path fill="#dadada" opacity="1.00" d=" M 43.88 680.98 C 43.16 677.66 41.91 674.15 42.66 670.76 C 44.46 677.77 49.22 682.54 56.24 684.34 C 52.83 685.06 49.34 683.85 46.02 683.11 C 46.33 687.06 51.25 688.29 51.93 692.18 C 48.29 690.07 45.47 686.49 41.09 685.92 C 40.45 681.55 36.66 678.86 34.84 675.06 C 38.72 675.75 39.94 680.67 43.88 680.98 Z" id="svg_8" class="selected" fill-opacity="1"/><path fill="#dadada" opacity="1.00" d=" M 684.49 679.43 C 686.41 680.74 682.56 685.93 679.17 685.21 C 679.87 682.56 681.80 680.22 684.49 679.43 Z" id="svg_9" class="selected" fill-opacity="1"/><path fill="#dadada" opacity="1.00" d=" M 32.06 681.88 C 35.25 682.77 38.22 684.29 41.09 685.92 C 42.71 688.79 44.22 691.75 45.12 694.94 C 40.64 690.72 36.28 686.35 32.06 681.88 Z" id="svg_10" class="selected" fill-opacity="1"/><path fill="#dadada" opacity="1.00" d=" M 689.56 683.35 C 696.67 681.82 679.41 697.08 683.69 688.88 C 685.07 686.58 687.05 684.41 689.56 683.35 Z" id="svg_11" class="selected" fill-opacity="1"/><path fill="#dadada" opacity="1.00" d=" M 29.24 688.81 C 34.84 688.38 38.62 692.16 38.19 697.76 C 34.84 695.65 31.34 692.16 29.24 688.81 Z" id="svg_12" class="selected" fill-opacity="1"/><path fill="#dadada" opacity="1.00" d=" M 691.36 690.31 C 701.03 688.43 684.66 698.89 691.36 690.31 Z" id="svg_13" class="selected" fill-opacity="1"/></g></svg>